# xmcd
#
# Track frame offsets: 
#        150
#        13978
#        24106
#        37819
#        60968
#        69435
#        82324
#        95103
#        104695
#        113524
#        127679
#
# Disc length: 1825 seconds
#
# Revision: 0
# Processed by: cddbd v1.5.2PL0 Copyright (c) Steve Scherf et al.
# Submitted via: ExactAudioCopyFreeDBPlugin 1.0
#
DISCID=83071f0b
DTITLE=Ralph Emery and Shotgun Red - Christmas with Ralph and Red
DYEAR=1900
DGENRE=Country
TTITLE0=Jingle Bells
TTITLE1=Up On The Housetop
TTITLE2=Wilbur The Christmas Mouse
TTITLE3='Twas The Night Before Christmas
TTITLE4=Here Comes Santa Claus
TTITLE5=Winter Wonderland
TTITLE6=Rudolph The Red-Nosed Reindeer
TTITLE7=Snowflakes
TTITLE8=Have Yourself A Merry Little Christmas
TTITLE9=Santa Claus Is Comin' To Town
TTITLE10=Frosty The Snowman
EXTD=
EXTT0=
EXTT1=
EXTT2=
EXTT3=
EXTT4=
EXTT5=
EXTT6=
EXTT7=
EXTT8=
EXTT9=
EXTT10=
PLAYORDER=
